<svg xmlns="http://www.w3.org/2000/svg" xmlns:xlink="http://www.w3.org/1999/xlink" width="183.152" height="32" viewBox="0 0 183.152 32">
  <defs>
    <clipPath id="clip-path">
      <rect width="183.152" height="32" fill="none"/>
    </clipPath>
  </defs>
  <g id="Component_48_4" data-name="Component 48 – 4" clip-path="url(#clip-path)">
    <path id="Path_575" data-name="Path 575" d="M37.3,6.3C37.033,5.881,33.06,0,26.172,0H11.444A8.637,8.637,0,0,0,2.808,8.636V24.795c0,.477-.742.212-.742.212A2.277,2.277,0,0,0,1.43,24.9,1.425,1.425,0,0,0,0,26.331c0,1.7,2.649,2.384,3.709,2.384a4.848,4.848,0,0,0,.9-.053A8.743,8.743,0,0,0,11.444,32H26.119a8.637,8.637,0,0,0,8.636-8.636V14.517s1.8-2.278,2.013-2.49h0s1.43-1.96,1.8-2.7.053-1.06-1.272-3.02" fill="#fff"/>
    <path id="Path_576" data-name="Path 576" d="M29.6,25.838a3.186,3.186,0,0,0,1.06.159c1.589,0,2.278-.636,2.278-1.377,0-.848-1.166-.848-1.272-1.642-.159-.954-.053-5.192,1.589-7.523l1.113.477a1.725,1.725,0,0,0,.689.159,1,1,0,0,0,.742-.371A21.431,21.431,0,0,0,38.662,11.8c.159-.265-2.172-3.179-3.444-4.185A5.3,5.3,0,0,0,31.987,6.5a5.114,5.114,0,0,0-4.874,3.444,24.75,24.75,0,0,1-7.311,3.5c-3.55.954-7.205.053-9.642.212a5.022,5.022,0,0,0-5.033,5.192c.053,2.755,1.96,5.245,1.96,7.841A2.836,2.836,0,0,1,4.278,29.6c-1.377,0-1.43-.53-1.854-.53A.339.339,0,0,0,2,29.387c0,.689,1.7,1.325,2.649,1.325a4.2,4.2,0,0,0,3.6-1.8,3.166,3.166,0,0,0,3.179,1.854c2.013,0,2.861-.954,2.861-1.748,0-.636-.371-.9-.689-1.325a1.918,1.918,0,0,1-.371-1.219,9.446,9.446,0,0,0,1.06.053c1.43,0,1.907-.583,1.907-1.166,0-.742-.848-.689-.848-1.907,0-.954.53-1.219.954-1.219.477,0,2.331.159,4.609.424.742.053,2.6.795,2.6,3.709v1.06c0,1.748.689,3.974,3.868,3.974,2.119,0,3.338-1.166,3.338-2.066,0-.583-.477-.795-.742-1.166a2.737,2.737,0,0,1-.371-2.331" transform="translate(-0.94 -3.056)" fill="#f26724"/>
    <path id="Path_577" data-name="Path 577" d="M63.471,19.1a.371.371,0,1,0,.371.371.362.362,0,0,0-.371-.371" transform="translate(-29.67 -8.981)" fill="#fff"/>
    <path id="Path_578" data-name="Path 578" d="M65.918,17a.318.318,0,1,0,.318.318A.305.305,0,0,0,65.918,17" transform="translate(-30.845 -7.993)" fill="#fff"/>
    <path id="Path_579" data-name="Path 579" d="M67.165,14.7a.265.265,0,1,0,.265.265.284.284,0,0,0-.265-.265" transform="translate(-31.456 -6.912)" fill="#fff"/>
    <path id="Path_580" data-name="Path 580" d="M47.024,17.248a.424.424,0,1,0-.424-.424c.053.265.212.424.424.424" transform="translate(-21.911 -7.711)" fill="#fff"/>
    <path id="Path_581" data-name="Path 581" d="M49.971,36.2a.378.378,0,0,0-.371.424.409.409,0,0,0,.371.424.418.418,0,0,0,.424-.424c-.053-.212-.212-.424-.424-.424" transform="translate(-23.322 -17.021)" fill="#fff"/>
    <path id="Path_582" data-name="Path 582" d="M54.424,37a.424.424,0,1,0,.424.424c-.053-.265-.212-.424-.424-.424" transform="translate(-25.391 -17.397)" fill="#fff"/>
    <path id="Path_583" data-name="Path 583" d="M50.524,29.4a.424.424,0,1,0,0,.848.39.39,0,0,0,.424-.424.418.418,0,0,0-.424-.424" transform="translate(-23.557 -13.824)" fill="#fff"/>
    <path id="Path_584" data-name="Path 584" d="M53.164,23.548a.424.424,0,0,0,0-.848.428.428,0,0,0,0,.848" transform="translate(-24.819 -10.673)" fill="#fff"/>
    <path id="Path_585" data-name="Path 585" d="M41.324,20.448a.424.424,0,1,0-.424-.424c.053.265.212.424.424.424" transform="translate(-19.231 -9.216)" fill="#fff"/>
    <path id="Path_586" data-name="Path 586" d="M45.624,34.7a.424.424,0,1,0,.424.424c-.053-.265-.212-.424-.424-.424" transform="translate(-21.253 -16.316)" fill="#fff"/>
    <path id="Path_587" data-name="Path 587" d="M43.524,24.148a.378.378,0,0,0,.371-.424.409.409,0,0,0-.371-.424.424.424,0,0,0,0,.848" transform="translate(-20.266 -10.956)" fill="#fff"/>
    <path id="Path_588" data-name="Path 588" d="M38.724,29.2a.424.424,0,1,0,.424.424.456.456,0,0,0-.424-.424" transform="translate(-18.009 -13.73)" fill="#fff"/>
    <path id="Path_589" data-name="Path 589" d="M46.524,27.648a.424.424,0,1,0-.424-.424c.053.265.212.424.424.424" transform="translate(-21.676 -12.601)" fill="#fff"/>
    <path id="Path_590" data-name="Path 590" d="M34.624,21.7a.424.424,0,1,0,.424.424.418.418,0,0,0-.424-.424" transform="translate(-16.081 -10.203)" fill="#fff"/>
    <path id="Path_591" data-name="Path 591" d="M36.324,25.6a.424.424,0,1,0,.424.424c-.053-.265-.212-.424-.424-.424" transform="translate(-16.88 -12.037)" fill="#fff"/>
    <path id="Path_592" data-name="Path 592" d="M41.824,32.1a.424.424,0,1,0,.424.424c-.053-.212-.212-.424-.424-.424" transform="translate(-19.466 -15.093)" fill="#fff"/>
    <path id="Path_593" data-name="Path 593" d="M49.524,20.748a.424.424,0,1,0-.424-.424c.053.265.212.424.424.424" transform="translate(-23.087 -9.357)" fill="#fff"/>
    <path id="Path_594" data-name="Path 594" d="M55.024,30.8a.424.424,0,1,0,.424.424.418.418,0,0,0-.424-.424" transform="translate(-25.673 -14.482)" fill="#fff"/>
    <path id="Path_595" data-name="Path 595" d="M56.924,24.7a.424.424,0,0,0,0,.848.39.39,0,0,0,.424-.424.418.418,0,0,0-.424-.424" transform="translate(-26.566 -11.614)" fill="#fff"/>
    <path id="Path_596" data-name="Path 596" d="M56.424,18.5a.424.424,0,1,0,.424.424.39.39,0,0,0-.424-.424" transform="translate(-26.331 -8.699)" fill="#fff"/>
    <path id="Path_597" data-name="Path 597" d="M60.024,19.6a.424.424,0,1,0,.424.424.456.456,0,0,0-.424-.424" transform="translate(-28.024 -9.216)" fill="#fff"/>
    <path id="Path_598" data-name="Path 598" d="M53.824,16.2a.424.424,0,1,0,.424.424c-.053-.265-.212-.424-.424-.424" transform="translate(-25.109 -7.617)" fill="#fff"/>
    <path id="Path_599" data-name="Path 599" d="M52.324,13.3a.424.424,0,1,0,.424.424c-.053-.212-.212-.424-.424-.424" transform="translate(-24.403 -6.254)" fill="#fff"/>
    <path id="Path_600" data-name="Path 600" d="M55.424,13.3a.424.424,0,1,0,.424.424.456.456,0,0,0-.424-.424" transform="translate(-25.861 -6.254)" fill="#fff"/>
    <path id="Path_601" data-name="Path 601" d="M52.2,11.018a.342.342,0,0,1,.318-.318.305.305,0,0,1,.318.318.318.318,0,0,1-.636,0" transform="translate(-24.544 -5.031)" fill="#fff"/>
    <path id="Path_602" data-name="Path 602" d="M54.1,8.765a.265.265,0,1,1,.265.265.284.284,0,0,1-.265-.265" transform="translate(-25.438 -3.997)" fill="#fff"/>
    <path id="Path_603" data-name="Path 603" d="M56.5,7.712a.212.212,0,1,1,.212.212.228.228,0,0,1-.212-.212" transform="translate(-26.566 -3.526)" fill="#fff"/>
    <path id="Path_604" data-name="Path 604" d="M66.9,12.912a.212.212,0,1,1,.212.212.228.228,0,0,1-.212-.212" transform="translate(-31.456 -5.972)" fill="#fff"/>
    <path id="Path_605" data-name="Path 605" d="M66.3,20.412a.212.212,0,1,1,.212.212c-.053,0-.159-.106-.212-.212" transform="translate(-31.174 -9.498)" fill="#fff"/>
    <path id="Path_606" data-name="Path 606" d="M67.4,19.012a.212.212,0,1,1,.212.212.228.228,0,0,1-.212-.212" transform="translate(-31.691 -8.84)" fill="#fff"/>
    <path id="Path_607" data-name="Path 607" d="M65.2,21.912a.212.212,0,1,1,.212.212.228.228,0,0,1-.212-.212" transform="translate(-30.657 -10.203)" fill="#fff"/>
    <path id="Path_608" data-name="Path 608" d="M63.9,23.212a.212.212,0,1,1,.212.212c-.106,0-.159-.106-.212-.212" transform="translate(-30.046 -10.815)" fill="#fff"/>
    <path id="Path_609" data-name="Path 609" d="M68.4,17.512a.212.212,0,1,1,.212.212.228.228,0,0,1-.212-.212" transform="translate(-32.162 -8.134)" fill="#fff"/>
    <path id="Path_610" data-name="Path 610" d="M69.1,16.212a.212.212,0,1,1,.212.212c-.106,0-.159-.053-.212-.212" transform="translate(-32.491 -7.523)" fill="#fff"/>
    <path id="Path_611" data-name="Path 611" d="M20.591,41.285a6.416,6.416,0,0,1-.477-5.086c1.113-2.861,4.344-2.49,4.344-2.49a3.722,3.722,0,0,0-1.7-.318A4.237,4.237,0,0,0,18.9,37.947a4.877,4.877,0,0,0,1.7,3.338" transform="translate(-8.883 -15.696)" fill="#fff"/>
    <path id="Path_612" data-name="Path 612" d="M11.107,27.869A3.4,3.4,0,0,1,10.1,25.432a3.506,3.506,0,0,1,3.444-3.444c1.96-.106,5.563.477,7.894.159.795,3.55,3.444,6.04,5.4,7.629-2.384-1.06-4.768-3.868-7.523-5.4-2.861-1.589-5.775-1.854-7.311-.424a3.958,3.958,0,0,0-.9,3.921" transform="translate(-4.749 -10.333)" fill="#fff"/>
    <path id="Path_613" data-name="Path 613" d="M25.9,39.9c.159,1.007-1.7,1.377-1.7,1.377,1.7.318,2.225-.583,2.225-.583a4.045,4.045,0,0,0-.53-.795" transform="translate(-11.379 -18.761)" fill="#fff"/>
    <path id="Path_614" data-name="Path 614" d="M50.678,40.9h0s-1.113,1.536-.318,4.4A5.721,5.721,0,0,1,48.4,46.3s2.543.318,3.338-1.007c-1.589-1.219-1.113-4.185-1.06-4.4" transform="translate(-22.758 -19.231)" fill="#fff"/>
    <path id="Path_615" data-name="Path 615" d="M60.346,10.273a1.687,1.687,0,0,0-2.066,1.166,1.646,1.646,0,0,0,1.536,1.8,1.687,1.687,0,0,0,2.066-1.166,1.646,1.646,0,0,0-1.536-1.8m1.272,1.748a1.23,1.23,0,0,1-1.483.848,1.166,1.166,0,0,1-1.06-1.272,1.23,1.23,0,0,1,1.483-.848,1.166,1.166,0,0,1,1.06,1.272" transform="translate(-27.392 -4.816)" fill="#fff"/>
    <path id="Path_616" data-name="Path 616" d="M62.094,12.67a.683.683,0,0,1,.795-.477.64.64,0,0,1,.583.689.683.683,0,0,1-.795.477.64.64,0,0,1-.583-.689" transform="translate(-29.193 -5.729)" fill="#fff"/>
    <path id="Path_617" data-name="Path 617" d="M57.024,38.3h0c.583,1.113-1.325,1.536-1.325,1.536,1.377.212,2.119-.583,2.119-.954a3.43,3.43,0,0,1-.795-.583" transform="translate(-26.19 -18.009)" fill="#fff"/>
    <path id="Path_618" data-name="Path 618" d="M35.43,31.306s.265.318.689.742a17,17,0,0,0,1.7,1.43,12.958,12.958,0,0,0,1.854,1.166,3.484,3.484,0,0,0,.636.318,2.227,2.227,0,0,1,.265.106,2.227,2.227,0,0,0-.265-.106,3.641,3.641,0,0,1-.689-.318,15.915,15.915,0,0,1-1.96-1.113,13.435,13.435,0,0,1-1.748-1.377,7.77,7.77,0,0,1-.742-.742.161.161,0,0,1,0-.212.4.4,0,0,1,.265.106h0" transform="translate(-16.516 -14.67)" fill="#fff"/>
    <path id="Path_619" data-name="Path 619" d="M60.909,10.305a2.862,2.862,0,0,0-4.821-.212A.451.451,0,1,1,55.4,9.51,3.241,3.241,0,0,1,57.89,8.4a3.2,3.2,0,0,1,3.02,1.907" transform="translate(-25.995 -3.947)" fill="#fff"/>
    <path id="Path_620" data-name="Path 620" d="M54.847,19.2a6.97,6.97,0,0,1-3.55-1.43,7.419,7.419,0,0,1-2.225-2.49c-.053-.159-.053-.371.106-.424a.286.286,0,0,1,.424.106,8.055,8.055,0,0,0,2.119,2.7A7.807,7.807,0,0,0,54.847,19.2" transform="translate(-23.059 -6.957)" fill="#fff"/>
    <path id="Path_621" data-name="Path 621" d="M50.862,23.267A8.6,8.6,0,0,1,45.3,20.512a11.633,11.633,0,0,1-1.748-2.437.309.309,0,0,1,.53-.318,10.442,10.442,0,0,0,2.066,3.073,8.006,8.006,0,0,0,4.715,2.437" transform="translate(-20.452 -8.274)" fill="#fff"/>
    <path id="Path_622" data-name="Path 622" d="M37.721,20.488a.3.3,0,0,1,.371.212,11.321,11.321,0,0,0,2.7,4.344,10.04,10.04,0,0,0,6.623,2.967,10.146,10.146,0,0,1-7.152-2.967,11.719,11.719,0,0,1-2.7-4.132.281.281,0,0,1,.159-.424" transform="translate(-17.642 -9.627)" fill="#fff"/>
    <path id="Path_623" data-name="Path 623" d="M57.859,14.919a3.11,3.11,0,0,0,1.748.53A2.151,2.151,0,0,0,61.886,13.7a2.5,2.5,0,0,1-2.49,2.225,3.692,3.692,0,0,1-1.854-.424.334.334,0,0,1-.159-.424c.159-.159.371-.265.477-.159" transform="translate(-26.972 -6.442)" fill="#fff"/>
    <path id="Path_624" data-name="Path 624" d="M85.562,41.342a1.349,1.349,0,0,1-.848,1.272,1.487,1.487,0,0,1,1.007,1.325c0,1.166-.795,1.7-2.225,1.7H80.9V39.7h2.437c1.324,0,2.225.477,2.225,1.642m-3.55.795h1.219c.583,0,1.06-.106,1.06-.689s-.477-.689-1.06-.689H82.013Zm0,2.49h1.325c.636,0,1.06-.159,1.06-.742,0-.53-.424-.689-1.06-.689H82.013Z" transform="translate(-38.039 -18.667)" fill="#6e6f71"/>
    <path id="Path_625" data-name="Path 625" d="M95.521,45.687l-.53-1.377H92.448l-.53,1.377H90.7L93.031,39.7h1.43l2.331,5.987Zm-.954-2.49-.848-2.331L92.872,43.2Z" transform="translate(-42.647 -18.667)" fill="#6e6f71"/>
    <path id="Path_626" data-name="Path 626" d="M107.938,45.687l-3.073-4.026v4.026H103.7V39.7h1.113l3.02,3.974V39.7h1.219v5.987Z" transform="translate(-48.76 -18.667)" fill="#6e6f71"/>
    <path id="Path_627" data-name="Path 627" d="M117.519,43.2v2.49H116.3V39.7h1.219v2.384h.53l2.013-2.384h1.483l-2.49,2.914,2.7,3.073h-1.536l-2.172-2.49Z" transform="translate(-54.684 -18.667)" fill="#6e6f71"/>
    <path id="Path_628" data-name="Path 628" d="M137.452,42.526a3.126,3.126,0,1,1-3.126-3.126,3.1,3.1,0,0,1,3.126,3.126m-5.086,0a1.908,1.908,0,1,0,1.907-1.96,1.85,1.85,0,0,0-1.907,1.96" transform="translate(-61.69 -18.526)" fill="#6e6f71"/>
    <path id="Path_629" data-name="Path 629" d="M146.166,43.25v2.437H145V39.7h4.4v1.06h-3.232v1.377h3.02V43.25Z" transform="translate(-68.179 -18.667)" fill="#6e6f71"/>
    <path id="Path_630" data-name="Path 630" d="M164.2,40.26l-.848.848a1.91,1.91,0,0,0-1.43-.636,1.962,1.962,0,0,0-.053,3.921,1.549,1.549,0,0,0,1.7-1.325h-1.483V42.061h2.755v.318a2.882,2.882,0,0,1-2.914,3.073,3.126,3.126,0,1,1,.053-6.252,3.678,3.678,0,0,1,2.225,1.06" transform="translate(-74.668 -18.432)" fill="#6e6f71"/>
    <path id="Path_631" data-name="Path 631" d="M172.3,45.687V39.7h4.4v1.06h-3.232v1.325h3.126V43.2h-3.126v1.377h3.285v1.113Z" transform="translate(-81.015 -18.667)" fill="#6e6f71"/>
    <path id="Path_632" data-name="Path 632" d="M188.752,42.526a3.126,3.126,0,1,1-3.126-3.126,3.1,3.1,0,0,1,3.126,3.126m-5.086,0a1.908,1.908,0,1,0,1.907-1.96,1.85,1.85,0,0,0-1.907,1.96" transform="translate(-85.811 -18.526)" fill="#6e6f71"/>
    <path id="Path_633" data-name="Path 633" d="M201.062,41.5a1.727,1.727,0,0,1-1.748,1.748h-.053l1.854,2.384h-1.43l-1.748-2.384h-.371v2.437H196.4V39.7h2.543c1.377,0,2.119.636,2.119,1.8m-3.55.742h1.325c.636,0,1.007-.265,1.007-.742s-.371-.742-1.007-.742h-1.325Z" transform="translate(-92.347 -18.667)" fill="#6e6f71"/>
    <path id="Path_634" data-name="Path 634" d="M212.157,40.26l-.848.848a1.91,1.91,0,0,0-1.43-.636,1.962,1.962,0,0,0-.053,3.921,1.549,1.549,0,0,0,1.7-1.325h-1.536V42.061h2.755v.318a2.883,2.883,0,0,1-2.914,3.073,3.126,3.126,0,1,1,.053-6.252,3.83,3.83,0,0,1,2.278,1.06" transform="translate(-97.19 -18.432)" fill="#6e6f71"/>
    <rect id="Rectangle_493" data-name="Rectangle 493" width="1.166" height="5.987" transform="translate(116.662 21.033)" fill="#6e6f71"/>
    <path id="Path_635" data-name="Path 635" d="M228.721,45.687l-.53-1.377h-2.543l-.53,1.377H223.9l2.331-5.987h1.43l2.331,5.987Zm-.9-2.49-.848-2.331-.848,2.331Z" transform="translate(-105.277 -18.667)" fill="#6e6f71"/>
    <path id="Path_636" data-name="Path 636" d="M80.8,19.921V15.1h1.589v4.715c0,1.377.636,1.96,1.589,1.96,1.007,0,1.642-.53,1.642-1.43,0-1.06-1.166-1.272-1.166-2.543h1.589c.053.689,1.219,1.007,1.219,2.7,0,1.589-1.377,2.755-3.285,2.755S80.8,22.146,80.8,19.921" transform="translate(-37.992 -7.1)" fill="#6e6f71"/>
    <path id="Path_637" data-name="Path 637" d="M94.9,19.921v-.53h1.589v.424c0,1.377.636,1.96,1.642,1.96a1.45,1.45,0,0,0,1.589-1.589c0-1.854-2.543-2.384-2.543-4.609V15.1h1.589v.371c0,1.748,2.6,1.907,2.6,4.715a2.953,2.953,0,0,1-3.285,3.073A3,3,0,0,1,94.9,19.921" transform="translate(-44.622 -7.1)" fill="#6e6f71"/>
    <path id="Path_638" data-name="Path 638" d="M109.2,20.145v-.53h1.589v.424a1.461,1.461,0,0,0,1.536,1.589c.954,0,1.589-.583,1.589-1.96V18.45a1.308,1.308,0,0,0-1.377-1.483,1.16,1.16,0,0,0-1.325,1.166v.159h-1.589v-.159a2.535,2.535,0,0,1,2.6-2.6,1.919,1.919,0,0,1,1.7.9V14.9H115.5v4.821c0,2.225-1.272,3.338-3.179,3.338a2.737,2.737,0,0,1-3.126-2.914" transform="translate(-51.346 -7.006)" fill="#6e6f71"/>
    <path id="Path_639" data-name="Path 639" d="M123.2,19.921v-.53h1.589v.424c0,1.377.636,1.96,1.642,1.96a1.45,1.45,0,0,0,1.589-1.589c0-1.854-2.543-2.384-2.543-4.609V15.1h1.589v.371c0,1.748,2.6,1.907,2.6,4.715a2.953,2.953,0,0,1-3.285,3.073,3,3,0,0,1-3.179-3.338" transform="translate(-57.928 -7.1)" fill="#6e6f71"/>
    <path id="Path_640" data-name="Path 640" d="M147.23,20.457v2.6h-1.642v-2.49c0-.9-.424-1.377-1.06-1.377a1.172,1.172,0,0,0-1.166,1.272V22.1h-1.642V20.4c0-.795-.424-1.272-1.113-1.272-.636,0-1.166.477-1.166,1.43V23H137.8V19.4c0-3.6,2.6-4.4,4.715-4.4H144.9v1.483h-2.225c-1.748,0-3.126.53-3.338,1.854a1.783,1.783,0,0,1,1.43-.689,1.91,1.91,0,0,1,1.748,1.272,2.367,2.367,0,0,1,2.172-1.272,2.643,2.643,0,0,1,2.543,2.808" transform="translate(-64.793 -7.053)" fill="#6e6f71"/>
    <path id="Path_641" data-name="Path 641" d="M157.8,19.827V18.238c0-2.225,1.325-3.338,3.02-3.338a2.319,2.319,0,0,1,2.331,1.377,2.338,2.338,0,0,1,2.278-1.377,2.768,2.768,0,0,1,2.7,3.02v5.139h-1.589V17.92c0-.954-.53-1.536-1.272-1.536S164,16.966,164,17.92v1.907c0,2.225-1.325,3.338-3.126,3.338s-3.073-1.113-3.073-3.338m4.609-.106V18.238c0-1.325-.636-1.907-1.483-1.907s-1.483.583-1.483,1.907v1.483c0,1.377.636,1.96,1.483,1.96.795,0,1.483-.583,1.483-1.96" transform="translate(-74.197 -7.006)" fill="#6e6f71"/>
    <path id="Path_642" data-name="Path 642" d="M180.1,20.2V19.78h1.589V20.1a1.512,1.512,0,0,0,1.7,1.483c1.06,0,1.7-.424,1.7-1.06,0-.689-.636-.954-1.324-.954h-.848v-1.43h.848c.689,0,1.166-.212,1.166-.848,0-.583-.583-1.06-1.536-1.06-1.06,0-1.7.636-1.7,1.377v.212H180.1v-.265c0-1.536,1.325-2.755,3.338-2.755,1.854,0,3.179,1.113,3.179,2.49a1.587,1.587,0,0,1-1.272,1.589,1.6,1.6,0,0,1,1.377,1.748c0,1.43-1.325,2.437-3.338,2.437-2.013.053-3.285-1.06-3.285-2.861" transform="translate(-84.683 -6.959)" fill="#6e6f71"/>
    <path id="Path_643" data-name="Path 643" d="M194.7,20.051v-.53h1.589V20a1.461,1.461,0,0,0,1.589,1.536c.954,0,1.536-.583,1.536-1.907V18.091c0-1.325-.636-1.907-1.536-1.907a1.488,1.488,0,0,0-1.589,1.536v.159H194.7V17.72a2.936,2.936,0,0,1,3.179-3.02,3,3,0,0,1,3.179,3.338v1.589c0,2.225-1.272,3.338-3.179,3.338a2.778,2.778,0,0,1-3.179-2.914" transform="translate(-91.548 -6.912)" fill="#6e6f71"/>
    <path id="Path_644" data-name="Path 644" d="M208.9,18.562V17.555a2.6,2.6,0,0,1,2.543-2.755,2.2,2.2,0,0,1,2.013,1.272,2.179,2.179,0,0,1,1.96-1.272,2.1,2.1,0,0,1,1.854,1.272A2.24,2.24,0,0,1,219.39,14.8a2.526,2.526,0,0,1,2.49,2.755v2.119h-1.589V17.608c0-.9-.424-1.377-1.06-1.377a1.2,1.2,0,0,0-1.166,1.272v1.907h-1.589V17.5a1.134,1.134,0,0,0-1.113-1.272,1.163,1.163,0,0,0-1.113,1.272v1.907h-1.589V17.5c0-.795-.424-1.272-1.06-1.272-.583,0-1.113.477-1.113,1.43v.795c0,2.066.9,3.073,3.762,3.073H219.5v1.483h-5.457c-2.331-.053-5.139-.848-5.139-4.45" transform="translate(-98.224 -6.959)" fill="#6e6f71"/>
    <path id="Path_645" data-name="Path 645" d="M245.43,17.555v5.4h-1.642v-5.3c0-.9-.424-1.377-1.06-1.377a1.172,1.172,0,0,0-1.166,1.272v3.338h-1.642V17.555c0-.795-.424-1.272-1.113-1.272-.636,0-1.166.477-1.166,1.43v5.245H236v-5.4a2.649,2.649,0,0,1,2.649-2.755,2.217,2.217,0,0,1,2.066,1.272,2.265,2.265,0,0,1,2.172-1.272,2.566,2.566,0,0,1,2.543,2.755" transform="translate(-110.967 -6.959)" fill="#6e6f71"/>
    <path id="Path_646" data-name="Path 646" d="M256.9,19.921V15.1h1.589v4.715c0,1.377.636,1.96,1.589,1.96,1.007,0,1.642-.53,1.642-1.43,0-1.06-1.166-1.272-1.166-2.543h1.589c.053.689,1.219,1.007,1.219,2.7,0,1.589-1.377,2.755-3.285,2.755s-3.179-1.113-3.179-3.338" transform="translate(-120.794 -7.1)" fill="#6e6f71"/>
    <path id="Path_647" data-name="Path 647" d="M282.864,20.5c0,1.589-1.272,2.755-3.232,2.755S276.4,22.093,276.4,20.5a2.721,2.721,0,0,1,2.6-2.7v-.583c0-.848-1.007-.848-1.007-2.119h1.589c0,.742,1.007.848,1.007,1.854v.9a2.661,2.661,0,0,1,2.278,2.649m-1.642-.053a1.438,1.438,0,0,0-1.589-1.43,1.434,1.434,0,1,0,0,2.861,1.438,1.438,0,0,0,1.589-1.43" transform="translate(-129.963 -7.1)" fill="#6e6f71"/>
    <path id="Path_648" data-name="Path 648" d="M290.5,19.921v-.53h1.589v.424c0,1.377.636,1.96,1.642,1.96a1.45,1.45,0,0,0,1.589-1.589c0-1.854-2.543-2.384-2.543-4.609V15.1h1.589v.371c0,1.748,2.6,1.907,2.6,4.715a2.953,2.953,0,0,1-3.285,3.073,3,3,0,0,1-3.179-3.338" transform="translate(-136.593 -7.1)" fill="#6e6f71"/>
    <path id="Path_649" data-name="Path 649" d="M305,20.5V17.431a2.525,2.525,0,0,1,2.755-2.331h3.126v1.377h-2.914c-.742,0-1.378.318-1.378,1.113v1.06a2.068,2.068,0,0,1,1.96-.9,2.758,2.758,0,0,1,2.861,2.755c0,1.589-1.324,2.755-3.232,2.755S305,22.093,305,20.5m4.715-.053a1.411,1.411,0,0,0-1.536-1.377,1.41,1.41,0,1,0,1.536,1.377" transform="translate(-143.411 -7.1)" fill="#6e6f71"/>
    <path id="Path_650" data-name="Path 650" d="M318.9,20.339v-.318h1.589v.265a1.532,1.532,0,0,0,1.7,1.589c1.06,0,1.7-.424,1.7-1.325,0-.848-.636-1.219-1.7-1.219H321.5V17.9h.848c.954,0,1.377-.371,1.377-1.219V15.2h1.589v1.7a1.8,1.8,0,0,1-1.377,1.748,2.028,2.028,0,0,1,1.589,2.172c0,1.483-1.325,2.6-3.338,2.6-2.013-.106-3.285-1.219-3.285-3.073" transform="translate(-149.946 -7.147)" fill="#6e6f71"/>
    <path id="Path_651" data-name="Path 651" d="M333.9,18.185a3.13,3.13,0,1,1,6.252,0v4.874h-1.589V18.238c0-1.272-.636-1.854-1.536-1.854-.848,0-1.483.583-1.483,1.854v4.821h-1.589V18.185Z" transform="translate(-156.999 -7.006)" fill="#6e6f71"/>
  </g>
</svg>
